<svg width="18" height="26" viewBox="0 0 18 26" fill="none" xmlns="http://www.w3.org/2000/svg">
<g clip-path="url(#clip0_185_11)">
<path d="M9.32787 0.000976562C9.79304 1.06976 10.6523 1.83831 11.474 2.61245C13.3413 4.37225 14.6579 6.55882 16.1092 8.64366C16.6072 9.35887 17.079 10.0939 17.5576 10.8234C17.6942 11.0312 17.832 11.2427 17.9322 11.4691C17.9875 11.5951 18.0306 11.7998 17.9693 11.894C17.4725 12.6595 17.6377 13.5248 17.6055 14.3511C17.5812 14.9726 17.679 15.5985 17.7015 16.2238C17.7707 18.13 17.8405 20.0361 17.8891 21.9423C17.914 22.9218 17.911 23.9025 17.8909 24.8813C17.8758 25.6127 17.6426 25.8589 16.9794 25.6579C15.9708 25.3521 14.9742 25.5916 13.9741 25.5593C13.4117 25.5413 12.8464 25.6108 12.2847 25.591C10.809 25.5382 9.34002 25.5326 7.86315 25.6598C5.88224 25.8304 3.89223 25.8906 1.90646 25.9966C1.7838 26.0035 1.65991 26.0022 1.53725 25.996C0.908725 25.965 0.71865 25.7895 0.629989 25.1518C0.537077 24.4819 0.436878 23.8125 0.362184 23.1408C0.240124 22.0453 0.108954 20.9498 0.0342602 19.8507C-0.0197866 19.053 0.00328958 18.249 0.00814771 17.4482C0.0172567 15.7895 0.0518709 14.1315 0.0439765 12.4728C0.0415474 11.9765 0.110776 11.5113 0.384653 11.1143C1.02046 10.1926 1.67874 9.28567 2.34187 8.38437C3.16897 7.26038 3.97967 6.12213 4.85353 5.03722C6.05471 3.54477 7.29839 2.08644 8.54936 0.636787C8.75583 0.39735 8.86149 -0.0163919 9.32727 0.00283747L9.32787 0.000976562ZM16.943 24.797C16.943 24.0011 16.9649 23.2034 16.9381 22.4076C16.8956 21.1558 16.773 19.9053 16.7687 18.6535C16.7614 16.47 16.813 14.2859 16.8531 12.1025C16.8586 11.7911 16.8325 11.5101 16.6552 11.2471C15.3599 9.32413 14.0755 7.39375 12.7711 5.47763C12.4638 5.02605 12.1079 4.60611 11.749 4.19485C10.9985 3.33262 10.2315 2.48529 9.46997 1.63299C9.31269 1.45683 9.15055 1.28438 8.97019 1.08837C7.87529 2.3879 6.80529 3.59935 5.80087 4.86415C4.40719 6.61899 3.09367 8.4402 1.6842 10.1801C0.970666 11.061 0.781199 12.0367 0.792129 13.1148C0.801846 14.0409 0.79638 14.9676 0.792129 15.8938C0.786057 17.1989 0.705897 18.5083 0.785449 19.8079C0.872896 21.2315 1.10548 22.6458 1.27612 24.0638C1.31438 24.3795 1.35749 24.6952 1.40972 25.0984C2.25018 25.0476 3.0457 25.287 3.82543 24.9582C3.82543 24.3621 3.82846 23.8132 3.82482 23.2636C3.82057 22.665 3.76531 22.0627 3.81085 21.4684C3.87522 20.6323 4.23533 19.8829 4.56933 19.1243C5.00838 18.1275 5.71221 17.6777 6.78525 17.7503C7.52368 17.8006 7.90201 17.9786 8.09026 18.7C8.27184 19.3966 8.38843 20.1236 8.42548 20.8425C8.47466 21.7941 8.41212 22.7506 8.41212 23.7052C8.41212 23.9999 8.45948 24.2951 8.49167 24.671C8.89246 24.671 9.255 24.6723 9.61693 24.671C11.3149 24.6655 13.0134 24.6785 14.7107 24.6444C15.4182 24.6301 16.1256 24.4819 16.7985 24.8329C16.8307 24.8497 16.8902 24.8106 16.9424 24.7963L16.943 24.797ZM7.65607 24.7511C7.66761 24.5662 7.68036 24.4676 7.67914 24.3696C7.66761 23.6469 7.58137 22.9156 7.65607 22.2029C7.76295 21.1905 7.57166 20.2073 7.50789 19.213C7.4915 18.9593 7.32571 18.7161 7.22309 18.4537C6.94982 18.4537 6.72816 18.4755 6.51258 18.4494C5.97272 18.3849 5.62112 18.6634 5.36546 19.0951C4.94158 19.811 4.68107 20.6006 4.61548 21.4256C4.54686 22.2959 4.57844 23.1755 4.57965 24.0514C4.57965 24.3175 4.62641 24.5842 4.65738 24.9117C5.66727 24.8578 6.631 24.8063 7.65668 24.7517L7.65607 24.7511Z" fill="#553219"/>
<path d="M7.09227 8.13094C7.88597 8.28167 8.68391 8.23577 9.48915 8.14273C10.0217 8.08132 10.567 8.08504 11.1033 8.11915C11.6055 8.15079 11.7852 8.3803 11.8059 8.89081C11.818 9.19104 11.8211 9.49251 11.8083 9.79273C11.7555 11.0271 11.999 12.2305 12.1551 13.4438C12.2382 14.0896 12.138 14.2533 11.4919 14.316C10.5422 14.4084 9.58813 14.4618 8.63594 14.5306C8.27037 14.5573 7.90479 14.5821 7.53861 14.6057C7.41655 14.6137 7.29327 14.6237 7.17121 14.6168C6.63925 14.5858 6.41334 14.3706 6.4097 13.8266C6.39938 12.3775 6.34351 10.9248 6.63257 9.49064C6.66657 9.3213 6.65321 9.14141 6.65929 8.96649C6.67143 8.6216 6.7862 8.33316 7.09227 8.13218V8.13094ZM7.4463 9.05209C7.40015 9.75986 7.35886 10.3888 7.31513 11.055C7.84285 11.0253 8.31895 10.9992 8.85273 10.9694V9.05271H7.44691L7.4463 9.05209ZM11.2514 13.455C11.1676 12.8942 11.0863 12.3471 11.0049 11.7994H9.6355C9.41567 12.4154 9.45696 12.9941 9.53712 13.6231C10.1231 13.674 10.6672 13.6932 11.252 13.4556L11.2514 13.455ZM8.69059 11.7808H7.29935C7.1706 12.6331 7.18396 13.2441 7.35157 13.8104C7.77544 13.7726 8.20721 13.7348 8.69059 13.6913V11.7808ZM10.9606 8.9392C10.4535 8.90694 10.0211 8.77606 9.58267 9.07318C9.63672 9.68728 9.47943 10.3107 9.66951 10.967C10.077 11.0135 10.4754 11.0588 10.9363 11.1115C11.0097 10.3522 10.9934 9.68666 10.9606 8.9392Z" fill="#553219"/>
</g>
<defs>
<clipPath id="clip0_185_11">
<rect width="18" height="26" fill="white"/>
</clipPath>
</defs>
</svg>
