<svg width="35" height="35" viewBox="0 0 35 35" fill="none" xmlns="http://www.w3.org/2000/svg">
<path d="M17.5124 8.53137C12.5381 8.53137 8.53137 12.5381 8.53137 17.5124C8.53137 22.4867 12.5381 26.4934 17.5124 26.4934C22.4867 26.4934 26.4934 22.4867 26.4934 17.5124C26.4934 12.5381 22.4867 8.53137 17.5124 8.53137ZM17.5124 23.3426C14.2996 23.3426 11.6822 20.7252 11.6822 17.5124C11.6822 14.2996 14.2996 11.6822 17.5124 11.6822C20.7252 11.6822 23.3426 14.2996 23.3426 17.5124C23.3426 20.7252 20.7128 23.3426 17.5124 23.3426ZM28.9496 8.15922C28.9496 9.32527 28.0068 10.2556 26.8532 10.2556C25.6995 10.2556 24.7568 9.31287 24.7568 8.15922C24.7568 7.00558 25.6995 6.06282 26.8532 6.06282C28.0068 6.06282 28.9496 7.00558 28.9496 8.15922ZM34.8915 10.2804C34.755 7.47696 34.1224 4.99601 32.0632 2.94923C30.0164 0.902446 27.5354 0.257399 24.732 0.120946C21.8417 -0.0403154 13.1707 -0.0403154 10.2804 0.120946C7.48937 0.257399 4.99601 0.890041 2.94923 2.93682C0.890041 4.98361 0.257399 7.46456 0.120946 10.2804C-0.0403154 13.1707 -0.0403154 21.8293 0.120946 24.7196C0.257399 27.523 0.890041 30.004 2.94923 32.0508C5.00842 34.0976 7.47696 34.7426 10.2804 34.8791C13.1707 35.0403 21.8293 35.0403 24.7196 34.8791C27.523 34.7426 30.004 34.11 32.0508 32.0508C34.0976 30.004 34.7426 27.523 34.8791 24.7196C35.0403 21.8293 35.0403 13.1707 34.8791 10.2804H34.8915ZM31.1576 27.8208C30.5498 29.3465 29.3713 30.5374 27.8332 31.1452C25.5259 32.0632 20.0554 31.8523 17.5124 31.8523C14.9694 31.8523 9.48653 32.0508 7.19165 31.1452C5.66587 30.5374 4.47501 29.3589 3.86718 27.8208C2.94923 25.5135 3.16011 20.043 3.16011 17.5C3.16011 14.957 2.96163 9.47413 3.86718 7.17925C4.47501 5.65346 5.65346 4.46261 7.19165 3.85478C9.49894 2.93682 14.9694 3.14771 17.5124 3.14771C20.0554 3.14771 25.5383 2.94923 27.8332 3.85478C29.3589 4.46261 30.5498 5.64106 31.1576 7.17925C32.0756 9.48653 31.8647 14.957 31.8647 17.5C31.8647 20.043 32.0756 25.5259 31.1576 27.8208Z" fill="#553219"/>
</svg>
