<svg width="35" height="35" viewBox="0 0 35 35" fill="none" xmlns="http://www.w3.org/2000/svg">
<g clip-path="url(#clip0_50_55)">
<path d="M21.2655 13.4569V19.0086C21.2655 19.1534 21.1569 19.2621 21.0121 19.2621H20.119C20.0345 19.2621 19.95 19.2138 19.9138 19.1655L17.3672 15.7259V19.0207C17.3672 19.1655 17.2586 19.2741 17.1138 19.2741H16.2207C16.0759 19.2741 15.9672 19.1655 15.9672 19.0207V13.469C15.9672 13.3241 16.0759 13.2155 16.2207 13.2155H17.1017C17.1741 13.2155 17.2707 13.2517 17.3069 13.3241L19.8534 16.7638V13.469C19.8534 13.3241 19.9621 13.2155 20.1069 13.2155H21C21.1448 13.2155 21.2534 13.3241 21.2534 13.4569H21.2655ZM14.8569 13.2034H13.9638C13.819 13.2034 13.7103 13.3121 13.7103 13.4569V19.0086C13.7103 19.1534 13.819 19.2621 13.9638 19.2621H14.8569C15.0017 19.2621 15.1103 19.1534 15.1103 19.0086V13.4569C15.1103 13.3241 15.0017 13.2034 14.8569 13.2034ZM12.7086 17.8621H10.2828V13.4569C10.2828 13.3121 10.1741 13.2034 10.0293 13.2034H9.13621C8.99138 13.2034 8.88276 13.3121 8.88276 13.4569V19.0086C8.88276 19.081 8.9069 19.1293 8.95517 19.1776C9.00345 19.2138 9.05172 19.25 9.12414 19.25H12.6966C12.8414 19.25 12.95 19.1414 12.95 18.9966V18.1034C12.95 17.9707 12.8414 17.85 12.7086 17.85V17.8621ZM25.9483 13.2034H22.3759C22.2431 13.2034 22.1224 13.3121 22.1224 13.4569V19.0086C22.1224 19.1414 22.231 19.2621 22.3759 19.2621H25.9483C26.0931 19.2621 26.2017 19.1534 26.2017 19.0086V18.1155C26.2017 17.9707 26.0931 17.8621 25.9483 17.8621H23.5224V16.9207H25.9483C26.0931 16.9207 26.2017 16.8121 26.2017 16.6672V15.7741C26.2017 15.6293 26.0931 15.5207 25.9483 15.5207H23.5224V14.5793H25.9483C26.0931 14.5793 26.2017 14.4707 26.2017 14.3259V13.4328C26.2017 13.3 26.081 13.1793 25.9483 13.1793V13.2034ZM35 6.38448V28.6759C35 32.1759 32.1276 35.0121 28.6155 35H6.32414C2.82414 35 0 32.1155 0 28.6155V6.32414C0 2.82414 2.88448 0 6.38448 0H28.6759C32.1759 0 35.0121 2.87241 35 6.38448ZM30.1845 15.9672C30.1845 10.2586 24.4638 5.62414 17.4397 5.62414C10.4155 5.62414 4.7069 10.2586 4.7069 15.9672C4.7069 21.0724 9.23276 25.3569 15.3638 26.1655C16.8603 26.4914 16.6793 27.0345 16.3534 29.0379C16.2931 29.3638 16.1 30.2931 17.4517 29.7259C18.8155 29.1586 24.7897 25.4052 27.469 22.3276C29.3155 20.3 30.1966 18.2362 30.1966 15.9552L30.1845 15.9672Z" fill="#553219"/>
</g>
<defs>
<clipPath id="clip0_50_55">
<rect width="35" height="35" fill="white"/>
</clipPath>
</defs>
</svg>
