<svg width="41" height="12" viewBox="0 0 41 12" fill="none" xmlns="http://www.w3.org/2000/svg">
<g clip-path="url(#clip0_47_237)">
<path d="M0.5 0.81L3 0.91L5.49 0.93L7.99 0.84L10.49 0.51L12.99 0.5L15.49 0.62L17.99 0.72L20.49 0.61L22.99 0.75L25.48 0.79L27.98 0.73L30.48 0.91L32.98 0.88L35.49 0.59L37.99 0.51L40.5 0.77" stroke="#553219" stroke-linecap="round" stroke-linejoin="round"/>
<path d="M0.5 10.86L3 10.95L5.49 10.98L7.99 10.88L10.49 10.55H12.99L15.49 10.67L17.99 10.77L20.49 10.66L22.99 10.8L25.48 10.84L27.98 10.77L30.48 10.95L32.98 10.92L35.49 10.64L37.99 10.56L40.5 10.81" stroke="#553219" stroke-linecap="round" stroke-linejoin="round"/>
</g>
<defs>
<clipPath id="clip0_47_237">
<rect width="41" height="11.48" fill="white"/>
</clipPath>
</defs>
</svg>
