<svg width="31" height="30" viewBox="0 0 31 30" fill="none" xmlns="http://www.w3.org/2000/svg">
<path d="M1.2192 28.9243L3.05768 27.2273L4.83252 25.4807L6.53665 23.6493L8.07107 21.6482L9.83176 19.8733L11.6844 18.1904L13.5229 16.4934L15.2128 14.6478L17.0796 12.9791L18.8686 11.2466L20.5939 9.43645L22.489 7.79596L24.2355 6.00698L25.8053 4.02708L27.5165 2.20275L29.4752 0.611757" stroke="#553219" stroke-linecap="round" stroke-linejoin="round"/>
<path d="M29.5034 28.79L27.8063 26.9515L26.0598 25.1766L24.2284 23.4725L22.2273 21.9381L20.4524 20.1774L18.7695 18.3248L17.0724 16.4863L15.2269 14.7963L13.5581 12.9295L11.8257 11.1406L10.0155 9.41523L8.37503 7.52018L6.58605 5.77363L4.60615 4.20385L2.78182 2.49265L1.19083 0.533966" stroke="#553219" stroke-linecap="round" stroke-linejoin="round"/>
</svg>
