<svg width="80" height="80" viewBox="0 0 80 80" fill="none" xmlns="http://www.w3.org/2000/svg">
<g clip-path="url(#clip0_50_27)">
<mask id="mask0_50_27" style="mask-type:luminance" maskUnits="userSpaceOnUse" x="0" y="0" width="80" height="80">
<path d="M70.625 0H9.375C4.21875 0 0 4.21875 0 9.375V70.625C0 75.7812 4.21875 80 9.375 80H70.625C75.7812 80 80 75.7812 80 70.625V9.375C80 4.21875 75.7812 0 70.625 0Z" fill="white"/>
</mask>
<g mask="url(#mask0_50_27)">
<path d="M80 0H0V80H80V0Z" fill="#E61915"/>
<path fill-rule="evenodd" clip-rule="evenodd" d="M11.0327 26.9313C11.1046 26.2688 11.1671 25.6391 11.2483 25.0094C11.2562 24.95 11.3499 24.8844 11.4187 24.8563C11.4812 24.8297 11.5608 24.85 11.6358 24.85H33.2827C33.2171 25.2672 33.1562 25.6563 33.0921 26.0438C33.0733 26.1688 33.0296 26.2938 33.0296 26.4188C33.0312 26.7422 32.839 26.8219 32.5655 26.8391C31.278 26.9297 29.9905 27.0172 28.7062 27.1203C27.8733 27.1875 27.0468 27.2813 26.1515 27.3672C29.1952 31.8625 32.6249 35.9828 35.7983 40.2594C38.328 38.1125 40.8608 35.9813 43.3624 33.8156C43.953 33.3063 44.4437 32.6875 44.9577 32.0984C45.1233 31.9078 45.2171 31.6531 45.3702 31.3828C44.5015 31.2453 43.6983 31.1063 42.8921 30.9953C41.8233 30.8484 40.7499 30.7281 39.6796 30.5828C39.5983 30.5703 39.4827 30.4563 39.4655 30.3719C39.3343 29.7516 39.2249 29.1281 39.1062 28.4781H58.1124C58.0671 28.5625 58.0358 28.6328 57.9937 28.6984C57.6218 29.2594 57.253 29.8234 56.8702 30.3766C56.7999 30.475 56.6749 30.5719 56.5577 30.5969C54.8733 30.9531 53.1812 31.2781 51.5015 31.6563C51.1437 31.7375 50.814 31.9828 50.4999 32.1922C48.2983 33.6703 46.2093 35.2984 44.1874 37.0109C42.5499 38.3984 40.9718 39.8562 39.3858 41.3016C38.9968 41.6562 38.6874 42.0922 38.3358 42.4844C38.0249 42.8297 37.9233 43.2438 37.9233 43.6906C37.9218 45.4938 37.9233 47.2969 37.9233 49.0984V51.5422C40.1624 51.6938 42.3312 51.8422 44.5218 51.9906C44.4452 52.7141 44.3749 53.3875 44.3077 54.0641C44.289 54.2531 44.1468 54.2063 44.0405 54.2047C43.1202 54.1906 42.203 54.1625 41.2827 54.1609C38.2608 54.1547 35.2374 54.1484 32.2171 54.1641C30.6062 54.1734 28.9968 54.2359 27.389 54.2672C26.1952 54.2922 25.0046 54.3031 23.8124 54.3188C23.7593 54.3188 23.7077 54.3094 23.6108 54.3016C23.6952 53.5984 23.7796 52.9094 23.8671 52.1656C24.5437 52.1656 25.1968 52.2 25.8468 52.1562C26.8702 52.0891 27.8874 51.9453 28.853 51.5703C29.5812 51.2875 30.1655 50.8391 30.1499 49.6859C30.1187 47.6203 30.1358 45.5531 30.1437 43.4859C30.1452 43.2188 30.0921 42.9859 29.939 42.7719C29.164 41.6953 28.4108 40.5953 27.6077 39.5422C25.1796 36.3672 22.664 33.2625 19.9921 30.2891C19.4093 29.6391 18.7796 29.0328 18.1858 28.3922C17.8483 28.0266 17.4437 27.8375 16.9562 27.7734C15.4812 27.5797 14.0077 27.3719 12.5327 27.1656C12.0421 27.0969 11.5515 27.0141 11.0421 26.9328L11.0327 26.9313Z" fill="white"/>
<path fill-rule="evenodd" clip-rule="evenodd" d="M54.8843 46.6344C56.8249 40.2922 58.7608 33.975 60.7077 27.6141C63.464 28.4578 66.1952 29.2953 68.9671 30.1437C68.8265 30.3781 68.7093 30.5781 68.5905 30.7781C66.3296 34.5953 64.0655 38.4094 61.8077 42.2281C60.7655 43.9891 59.728 45.7531 58.6999 47.5219C58.589 47.7125 58.4952 47.7641 58.2749 47.6937C57.2296 47.3594 56.1796 47.0453 55.128 46.7234C55.0593 46.7016 54.9937 46.675 54.8843 46.6359V46.6344Z" fill="white"/>
<path fill-rule="evenodd" clip-rule="evenodd" d="M57.5546 51.2031C57.5281 51.2766 57.5093 51.3359 57.4843 51.3922C56.9328 52.6469 56.3812 53.9 55.8281 55.1562C54.2109 54.6828 52.6093 54.2141 50.9812 53.7375C51.0781 53.5094 51.175 53.2781 51.2765 53.0469C51.7312 51.9984 52.1906 50.95 52.6406 49.9C52.7062 49.75 52.7609 49.6531 52.9546 49.7297C54.425 50.3062 55.9265 50.7781 57.464 51.1437C57.4874 51.15 57.5093 51.1719 57.5562 51.2016L57.5546 51.2031Z" fill="white"/>
</g>
</g>
<defs>
<clipPath id="clip0_50_27">
<rect width="80" height="80" fill="white"/>
</clipPath>
</defs>
</svg>
