<svg width="80" height="80" viewBox="0 0 80 80" fill="none" xmlns="http://www.w3.org/2000/svg">
<g clip-path="url(#clip0_50_38)">
<mask id="mask0_50_38" style="mask-type:luminance" maskUnits="userSpaceOnUse" x="0" y="0" width="80" height="80">
<path d="M70.625 0H9.375C4.21875 0 0 4.21875 0 9.375V70.625C0 75.7812 4.21875 80 9.375 80H70.625C75.7812 80 80 75.7812 80 70.625V9.375C80 4.21875 75.7812 0 70.625 0Z" fill="white"/>
</mask>
<g mask="url(#mask0_50_38)">
<path d="M80 0H0V80H80V0Z" fill="#B21E23"/>
<path d="M68.1233 40.0016C68.1233 55.5328 55.5312 68.1219 40.0015 68.1219C24.4718 68.1219 11.878 55.5312 11.8765 39.9984C11.8765 24.4672 24.4655 11.8734 39.9999 11.875C55.5312 11.8734 68.1233 24.4672 68.1233 40V40.0016Z" fill="white"/>
<path d="M37.8484 54.6969V45.3547H39.7609L44.7203 54.6969H52.0016L46.6312 44.6187C48.6484 42.9859 49.2172 42.6516 50.3219 41.1047C51.4234 39.5562 51.9766 37.6297 51.9766 35.3266C51.9766 33.0234 51.475 31.2375 50.4781 29.6312C49.4797 28.0281 48.1578 26.8797 46.5156 26.1906C44.8734 25.4984 42.1172 25.1531 38.2453 25.1531H31.1797V54.6969H37.85H37.8484ZM37.8484 31.6578H39.6766C41.4516 31.6578 42.6703 31.7812 43.3344 32.0297C44 32.2781 44.5297 32.6844 44.9266 33.2484C45.3234 33.8141 45.5203 34.4797 45.5203 35.2453C45.5203 36.5359 45.1203 37.4609 44.3219 38.0187C43.5234 38.575 42.0609 38.8547 39.9391 38.8547H37.85V31.6594L37.8484 31.6578Z" fill="#B21E23"/>
</g>
</g>
<defs>
<clipPath id="clip0_50_38">
<rect width="80" height="80" fill="white"/>
</clipPath>
</defs>
</svg>
