<svg width="30" height="144" viewBox="0 0 30 144" fill="none" xmlns="http://www.w3.org/2000/svg">
<path d="M15.0166 143.578V144C14.5344 144 14.0521 143.707 13.5698 143.652C13.0876 143.597 12.5554 143.798 12.0898 143.688C11.6242 143.578 11.1752 143.285 10.7095 143.139C10.2439 142.992 9.81153 142.754 9.36253 142.552C8.91353 142.35 8.41463 142.24 7.98226 142.002C7.54989 141.764 7.20067 141.342 6.80155 141.049C6.40244 140.756 5.93681 140.536 5.57095 140.188C5.2051 139.839 5.02217 139.289 4.67295 138.904C4.32373 138.52 3.75832 138.391 3.44235 137.97C3.12639 137.548 2.9102 137.072 2.64412 136.613C2.37805 136.155 2.1286 135.697 1.91242 135.22C1.69623 134.744 1.74612 134.139 1.56319 133.644C1.38027 133.149 0.931264 132.764 0.798226 132.251C0.665188 131.738 0.449002 131.243 0.349224 130.711C0.249446 130.18 0.58204 129.593 0.532151 129.062C0.482262 128.53 0.282705 128.035 0.282705 127.485C0.282705 126.697 0.199557 126.697 0.199557 125.909C0.199557 125.121 0.399113 125.121 0.399113 124.333C0.399113 123.545 0.232816 123.545 0.232816 122.775C0.232816 122.005 0.232816 121.987 0.232816 121.217C0.232816 120.447 0.0498891 120.429 0.0498891 119.659C0.0498891 118.889 0.399113 118.871 0.399113 118.101C0.399113 117.331 0.0665188 117.313 0.0665188 116.543C0.0665188 115.773 0.465632 115.755 0.465632 114.985C0.465632 114.215 0.116408 114.197 0.116408 113.427C0.116408 112.657 0.0665188 112.639 0.0665188 111.869C0.0665188 111.099 0.199557 111.081 0.199557 110.311C0.199557 109.541 0.0332594 109.523 0.0332594 108.753C0.0332594 107.983 0.0332594 107.965 0.0332594 107.195C0.0332594 106.425 0.282705 106.407 0.282705 105.619C0.282705 104.831 0.182927 104.831 0.182927 104.042C0.182927 103.254 0.216186 103.254 0.216186 102.484C0.216186 101.715 0.149667 101.696 0.149667 100.926C0.149667 100.157 0.299335 100.138 0.299335 99.3685C0.299335 98.5987 0.299335 98.5803 0.299335 97.8105C0.299335 97.0407 0.199557 97.0224 0.199557 96.2525C0.199557 95.4827 0.0997783 95.4644 0.0997783 94.6946C0.0997783 93.9247 0.465632 93.9064 0.465632 93.1366C0.465632 92.3668 0.465632 92.3484 0.465632 91.5786C0.465632 90.8088 0.199557 90.7905 0.199557 90.0206C0.199557 89.2508 0.315965 89.2325 0.315965 88.4626C0.315965 87.6928 0.116408 87.6745 0.116408 86.9047C0.116408 86.1348 0.465632 86.1165 0.465632 85.3467C0.465632 84.5769 0.415743 84.5585 0.415743 83.7887C0.415743 83.0189 0.199557 83.0006 0.199557 82.2307C0.199557 81.4609 0.0332594 81.4426 0.0332594 80.6727C0.0332594 79.9029 0.199557 79.8846 0.199557 79.0964C0.199557 78.3083 0.449002 78.3083 0.449002 77.5201C0.449002 76.732 0.149667 76.732 0.149667 75.9438C0.149667 75.1557 0.149667 75.1557 0.149667 74.3858C0.149667 73.616 0.399113 73.5977 0.399113 72.8279C0.399113 72.058 0.399113 72.0397 0.399113 71.2699C0.399113 70.5001 0.432372 70.4817 0.432372 69.7119C0.432372 68.9421 0.149667 68.9238 0.149667 68.1539C0.149667 67.3841 0.182927 67.3658 0.182927 66.5959C0.182927 65.8261 0.365854 65.8078 0.365854 65.0196C0.365854 64.2315 0.149667 64.2315 0.149667 63.4433C0.149667 62.6552 0.332594 62.6552 0.332594 61.867C0.332594 61.0789 0.149667 61.0789 0.149667 60.2907C0.149667 59.5026 0.116408 59.5026 0.116408 58.7144C0.116408 57.9263 0.0831486 57.9263 0.0831486 57.1381C0.0831486 56.35 0 56.35 0 55.5618C0 54.7736 0.0166297 54.7736 0.0166297 53.9855C0.0166297 53.1973 0.332594 53.1973 0.332594 52.4092C0.332594 51.621 0.0166297 51.621 0.0166297 50.8329C0.0166297 50.0447 0.266075 50.0447 0.266075 49.2566C0.266075 48.4684 0.133038 48.4684 0.133038 47.6803C0.133038 46.8921 0 46.8921 0 46.104C0 45.3158 0.266075 45.3158 0.266075 44.5276C0.266075 43.7395 0.0831486 43.7395 0.0831486 42.9513C0.0831486 42.1632 0.332594 42.1632 0.332594 41.375C0.332594 40.5869 0.166297 40.5869 0.166297 39.7987C0.166297 39.0106 0.116408 39.0106 0.116408 38.2224C0.116408 37.4343 0.116408 37.4343 0.116408 36.6461C0.116408 35.858 0.0831486 35.8579 0.0831486 35.0881C0.0831486 34.3183 0.0166297 34.3 0.0166297 33.5118C0.0166297 32.7237 0.299335 32.7237 0.299335 31.9355C0.299335 31.1474 0.249446 31.1474 0.249446 30.3592C0.249446 29.571 0.382483 29.571 0.382483 28.7829C0.382483 27.9947 0.0997783 27.9947 0.0997783 27.2066C0.0997783 26.4184 0.332594 26.4184 0.332594 25.6303C0.332594 24.8421 0.232816 24.8421 0.232816 24.054C0.232816 23.2658 0.315965 23.2658 0.315965 22.4777C0.315965 21.6895 0.216186 21.6895 0.216186 20.9014C0.216186 20.1132 0.299335 20.1132 0.299335 19.325C0.299335 18.5369 0.182927 18.5369 0.182927 17.7304C0.182927 16.9239 0.332594 16.9423 0.332594 16.1358C0.332594 15.6042 0.216186 15.0727 0.266075 14.5411C0.315965 14.0096 0.382483 13.478 0.482262 12.9648C0.58204 12.4516 0.764967 11.9384 0.898004 11.4435C1.03104 10.9486 1.18071 10.4354 1.36364 9.94052C1.54656 9.44563 1.72949 8.96907 1.96231 8.49251C2.19512 8.01595 2.47783 7.59438 2.7439 7.15448C3.00998 6.71458 3.0765 6.09139 3.39246 5.68815C3.70843 5.28491 4.32373 5.17493 4.65632 4.80835C4.98891 4.44177 5.15521 3.8369 5.52106 3.50698C5.88692 3.17705 6.45233 3.12207 6.85144 2.8288C7.25055 2.53553 7.6663 2.29725 8.08204 2.04065C8.49778 1.78404 8.91353 1.54576 9.36253 1.34414C9.81153 1.14252 10.1608 0.684289 10.6264 0.537655C11.092 0.391022 11.5743 0.317705 12.0565 0.22606C12.5388 0.134414 13.0044 0.0794264 13.4867 0.0244389C13.969 -0.0305486 14.4346 0.0244389 14.9335 0.0244389C15.4157 0.0244389 15.898 0.0794264 16.3636 0.134414C16.8293 0.189401 17.2949 0.336035 17.7772 0.42768C18.2594 0.519326 18.7417 0.519326 19.2073 0.665959C19.6729 0.812593 20.122 0.995884 20.571 1.19751C21.02 1.39913 21.5687 1.3808 22.0011 1.61908C22.4335 1.85736 22.8659 2.16895 23.265 2.46222C23.6641 2.75548 23.9468 3.25037 24.3126 3.59863C24.6785 3.94688 24.8947 4.4601 25.2439 4.82668C25.5931 5.19326 26.1253 5.37655 26.4412 5.7798C26.7572 6.18304 26.9568 6.69625 27.2228 7.13615C27.4889 7.57605 27.6718 8.07094 27.888 8.5475C28.1042 9.02406 28.4534 9.4273 28.6364 9.92219C28.8193 10.4171 28.7361 11.0036 28.8858 11.5168C29.0355 12.03 29.4678 12.4516 29.5676 12.9648C29.6674 13.478 29.3847 14.0646 29.4346 14.5961C29.4845 15.1277 29.7672 15.6226 29.7672 16.1724C29.7672 16.9606 29.7007 16.9606 29.7007 17.7487C29.7007 18.5369 29.6009 18.5369 29.6009 19.325C29.6009 20.1132 29.8337 20.1132 29.8337 20.883C29.8337 21.6528 29.8836 21.6712 29.8836 22.441C29.8836 23.2108 29.9501 23.2292 29.9501 23.999C29.9501 24.7688 29.9501 24.7871 29.9501 25.557C29.9501 26.3268 29.9501 26.3451 29.9501 27.1149C29.9501 27.8848 29.867 27.9031 29.867 28.6729C29.867 29.4427 29.6674 29.4611 29.6674 30.2309C29.6674 31.0007 29.867 31.0191 29.867 31.7889C29.867 32.5587 29.6508 32.577 29.6508 33.3469C29.6508 34.1167 29.6508 34.135 29.6508 34.9048C29.6508 35.6747 29.7506 35.693 29.7506 36.4628C29.7506 37.2326 29.7506 37.251 29.7506 38.0391C29.7506 38.8273 29.9169 38.8273 29.9169 39.6154C29.9169 40.4036 29.9667 40.4036 29.9667 41.1734C29.9667 41.9432 29.5843 41.9616 29.5843 42.7314C29.5843 43.5012 29.9169 43.5195 29.9169 44.2894C29.9169 45.0592 29.7506 45.0775 29.7506 45.8473C29.7506 46.6172 29.6341 46.6355 29.6341 47.4053C29.6341 48.1751 29.6009 48.1935 29.6009 48.9633C29.6009 49.7331 29.6341 49.7515 29.6341 50.5213C29.6341 51.2911 29.8171 51.3094 29.8171 52.0793C29.8171 52.8491 29.6175 52.8674 29.6175 53.6372C29.6175 54.4071 29.9501 54.4254 29.9501 55.1952C29.9501 55.965 29.8503 55.9834 29.8503 56.7532C29.8503 57.523 29.6674 57.5413 29.6674 58.3112C29.6674 59.081 29.867 59.0993 29.867 59.8692C29.867 60.639 29.8503 60.6573 29.8503 61.4271C29.8503 62.197 29.7506 62.2153 29.7506 62.9851C29.7506 63.7549 29.6009 63.7733 29.6009 64.5614C29.6009 65.3496 29.7007 65.3496 29.7007 66.1377C29.7007 66.9259 29.9169 66.9259 29.9169 67.714C29.9169 68.5022 29.8171 68.5022 29.8171 69.272C29.8171 70.0418 29.5676 70.0602 29.5676 70.83C29.5676 71.5998 29.7506 71.6181 29.7506 72.388C29.7506 73.1578 29.8004 73.1761 29.8004 73.9459C29.8004 74.7158 29.8337 74.7341 29.8337 75.5039C29.8337 76.2738 29.5843 76.2921 29.5843 77.0619C29.5843 77.8317 29.7173 77.8501 29.7173 78.6382C29.7173 79.4264 29.9002 79.4264 29.9002 80.2145C29.9002 81.0027 29.7007 81.0027 29.7007 81.7908C29.7007 82.579 29.6674 82.579 29.6674 83.3671C29.6674 84.1553 29.6175 84.1553 29.6175 84.9434C29.6175 85.7316 29.684 85.7316 29.684 86.5198C29.684 87.3079 29.7506 87.3079 29.7506 88.0961C29.7506 88.8842 29.7506 88.8842 29.7506 89.6724C29.7506 90.4605 29.551 90.4605 29.551 91.2487C29.551 92.0368 29.8836 92.0368 29.8836 92.825C29.8836 93.6131 29.7007 93.6131 29.7007 94.4013C29.7007 95.1894 29.6175 95.1894 29.6175 95.9776C29.6175 96.7658 29.9667 96.7658 29.9667 97.5539C29.9667 98.3421 29.6508 98.3421 29.6508 99.1302C29.6508 99.9184 29.9667 99.9184 29.9667 100.707C29.9667 101.495 30 101.495 30 102.283C30 103.071 29.6009 103.071 29.6009 103.859C29.6009 104.647 29.7339 104.647 29.7339 105.435C29.7339 106.224 29.5676 106.224 29.5676 107.012C29.5676 107.8 29.7506 107.8 29.7506 108.57C29.7506 109.34 29.7506 109.358 29.7506 110.146C29.7506 110.934 29.9335 110.934 29.9335 111.722C29.9335 112.511 29.8004 112.511 29.8004 113.299C29.8004 114.087 29.7672 114.087 29.7672 114.875C29.7672 115.663 29.9335 115.663 29.9335 116.451C29.9335 117.239 29.9834 117.239 29.9834 118.028C29.9834 118.816 29.8337 118.816 29.8337 119.604C29.8337 120.392 29.5843 120.392 29.5843 121.18C29.5843 121.968 29.8337 121.968 29.8337 122.756C29.8337 123.545 29.8836 123.545 29.8836 124.333C29.8836 125.121 29.8171 125.121 29.8171 125.927C29.8171 126.734 29.6341 126.716 29.6341 127.522C29.6341 128.054 29.9335 128.604 29.8836 129.135C29.8337 129.667 29.684 130.198 29.5843 130.711C29.4845 131.225 29.1685 131.701 29.0355 132.196C28.9024 132.691 28.8525 133.259 28.6696 133.736C28.4867 134.212 28.204 134.67 27.9878 135.129C27.7716 135.587 27.5554 136.082 27.2894 136.522C27.0233 136.962 26.8237 137.475 26.5244 137.878C26.2251 138.281 25.7428 138.538 25.4102 138.904C25.0776 139.271 24.6619 139.546 24.2794 139.876C23.8969 140.206 23.6142 140.646 23.2151 140.939C22.816 141.232 22.4002 141.507 21.9845 141.745C21.5687 141.984 21.1863 142.369 20.7373 142.57C20.2882 142.772 19.7894 142.827 19.3404 142.974C18.8914 143.12 18.459 143.487 17.9933 143.597C17.5277 143.707 17.0122 143.523 16.5299 143.597C16.0477 143.67 15.582 143.56 15.0831 143.56L15.0166 143.578Z" fill="#9DBF7B"/>
</svg>
