<svg width="30" height="125" viewBox="0 0 30 125" fill="none" xmlns="http://www.w3.org/2000/svg">
<g clip-path="url(#clip0_110_105)">
<path d="M41.837 108.748C41.837 108.102 41.661 108.102 41.661 107.457C41.661 106.811 41.8175 106.811 41.8175 106.172C41.8175 105.533 41.9544 105.526 41.9544 104.88C41.9544 104.235 41.7327 104.235 41.7327 103.595C41.7327 102.956 41.824 102.95 41.824 102.304C41.824 101.658 41.8109 101.658 41.8109 101.019C41.8109 100.38 41.7523 100.373 41.7523 99.7342C41.7523 99.095 41.9544 99.0885 41.9544 98.4493C41.9544 97.81 41.8892 97.8036 41.8892 97.1643C41.8892 96.5251 41.8175 96.5186 41.8175 95.8794C41.8175 95.2402 41.7327 95.2402 41.7327 94.5945C41.7327 93.9488 41.7327 93.9488 41.7327 93.3095C41.7327 92.6703 41.6936 92.6638 41.6936 92.0246C41.6936 91.3854 41.9739 91.3789 41.9739 90.7397C41.9739 90.1004 41.9413 90.1004 41.9413 89.4547C41.9413 88.809 41.9152 88.8155 41.9152 88.1698C41.9152 87.5241 41.8826 87.5241 41.8826 86.8849C41.8826 86.2456 41.7914 86.2392 41.7914 85.5999C41.7914 84.9607 41.8631 84.9542 41.8631 84.315C41.8631 83.6758 41.7914 83.6693 41.7914 83.0301C41.7914 82.3908 41.9087 82.3844 41.9087 81.7451C41.9087 81.1059 41.837 81.0994 41.837 80.4602C41.837 79.821 41.8566 79.8145 41.8566 79.1753C41.8566 78.536 41.7457 78.5296 41.7457 77.8903C41.7457 77.2511 41.8761 77.2447 41.8761 76.6054C41.8761 75.9662 41.9739 75.9597 41.9739 75.3205C41.9739 74.6812 41.7718 74.6748 41.7718 74.0356C41.7718 73.3963 41.9674 73.3899 41.9674 72.7506C41.9674 72.1114 41.987 72.1049 41.987 71.4657C41.987 70.8264 41.7327 70.82 41.7327 70.1808C41.7327 69.5415 41.6675 69.5351 41.6675 68.8958C41.6675 68.2566 41.8044 68.2501 41.8044 67.6109C41.8044 66.9716 41.674 66.9652 41.674 66.326C41.674 65.6867 41.9348 65.6803 41.9348 65.041C41.9348 64.4018 41.7914 64.3953 41.7914 63.7561C41.7914 63.1169 41.9544 63.1104 41.9544 62.4712C41.9544 61.8319 41.8957 61.8255 41.8957 61.1862C41.8957 60.547 41.6871 60.5405 41.6871 59.9013C41.6871 59.2621 41.8305 59.2556 41.8305 58.6164C41.8305 57.9771 41.8175 57.9707 41.8175 57.3314C41.8175 56.6922 41.9609 56.6922 41.9609 56.0465C41.9609 55.4008 41.6871 55.4073 41.6871 54.7616C41.6871 54.1159 41.7979 54.1223 41.7979 53.4766C41.7979 52.8309 41.9478 52.8374 41.9478 52.1917C41.9478 51.546 41.9739 51.5525 41.9739 50.9068C41.9739 50.2611 41.987 50.2611 41.987 49.6218C41.987 48.9826 41.987 48.9761 41.987 48.3369C41.987 47.6977 41.7262 47.6912 41.7262 47.052C41.7262 46.4127 41.7066 46.4063 41.7066 45.767C41.7066 45.1278 41.9609 45.1278 41.9609 44.4821C41.9609 43.8364 41.7653 43.8429 41.7653 43.1972C41.7653 42.5515 41.8826 42.5579 41.8826 41.9122C41.8826 41.2666 41.7588 41.273 41.7588 40.6273C41.7588 39.9816 42.0065 39.9881 42.0065 39.3424C42.0065 38.6967 41.6871 38.7031 41.6871 38.0575C41.6871 37.4118 41.9087 37.4182 41.9087 36.7725C41.9087 36.1268 41.7914 36.1333 41.7914 35.4876C41.7914 34.8419 41.7197 34.8484 41.7197 34.2027C41.7197 33.557 41.9739 33.5634 41.9739 32.9177C41.9739 32.272 42.013 32.272 42.013 31.6328C42.013 30.9936 41.837 30.9871 41.837 30.3479C41.837 29.7086 41.9609 29.7022 41.9609 29.0629C41.9609 28.4237 41.9348 28.4237 41.9348 27.778C41.9348 27.1323 41.8957 27.1388 41.8957 26.4931C41.8957 25.8474 41.7197 25.8538 41.7197 25.2081C41.7197 24.5624 41.8044 24.5689 41.8044 23.9232C41.8044 23.2775 41.8044 23.284 41.8044 22.6383C41.8044 21.9926 41.8957 21.999 41.8957 21.3533C41.8957 20.7076 41.6871 20.7141 41.6871 20.0684C41.6871 19.4227 41.837 19.4292 41.837 18.7835C41.837 18.1378 41.9674 18.1442 41.9674 17.4985C41.9674 16.8528 41.8109 16.8593 41.8109 16.2136C41.8109 15.5679 41.9022 15.5744 41.9022 14.9287C41.9022 14.283 41.8435 14.2894 41.8435 13.6437C41.8435 12.998 41.8826 13.0045 41.8826 12.3588C41.8826 11.7131 41.7718 11.7196 41.7718 11.0739C41.7718 10.4282 41.9739 10.4346 41.9739 9.78895C41.9739 9.14325 41.7588 9.14971 41.7588 8.50401C41.7588 7.85832 42 7.85832 42 7.21908C42 6.57985 41.9152 6.57985 41.9152 5.93415C41.9152 5.28846 41.9348 5.29491 41.9348 4.64922C41.9348 4.00352 41.7588 4.00998 41.7588 3.36429C41.7588 2.93167 41.7914 2.51843 41.6349 2.13747C41.4719 1.75005 41.335 1.28515 41.0416 0.994588C40.7482 0.704026 40.2266 0.697569 39.8355 0.536145C39.4573 0.381178 39.0922 0.297238 38.6554 0.297238C38.0034 0.297238 38.0034 0.142271 37.3449 0.142271C36.6864 0.142271 36.693 0.129357 36.0345 0.129357C35.376 0.129357 35.3825 0.200384 34.7305 0.200384C34.0786 0.200384 34.0786 0.329523 33.4266 0.329523C32.7746 0.329523 32.7746 0.0583311 32.1226 0.0583311C31.4707 0.0583311 31.4707 0.310152 30.8187 0.310152C30.1667 0.310152 30.1667 0.148728 29.5147 0.148728C28.8628 0.148728 28.8628 0.258496 28.2108 0.258496C27.5588 0.258496 27.5588 0.174556 26.9069 0.174556C26.2549 0.174556 26.2549 -0.0126953 25.6029 -0.0126953C24.951 -0.0126953 24.951 0.10353 24.299 0.10353C23.647 0.10353 23.647 0.161642 22.995 0.161642C22.3431 0.161642 22.3431 0.142271 21.6911 0.142271C21.0391 0.142271 21.0391 0.226212 20.3871 0.226212C19.7352 0.226212 19.7352 0.277867 19.0832 0.277867C18.4312 0.277867 18.4312 0.329523 17.7793 0.329523C17.1273 0.329523 17.1273 0.142271 16.4753 0.142271C15.8233 0.142271 15.8233 0.206841 15.1714 0.206841C14.5194 0.206841 14.5194 0.0906158 13.8674 0.0906158C13.2155 0.0906158 13.2155 0.310152 12.5635 0.310152C11.9115 0.310152 11.9115 0.342437 11.2595 0.342437C10.6076 0.342437 10.6076 0.116444 9.95561 0.116444C9.30363 0.116444 9.30363 0.0906158 8.65166 0.0906158C7.99969 0.0906158 7.99969 0.310152 7.34772 0.310152C6.69575 0.310152 6.69575 0.213298 6.0503 0.213298C5.40484 0.213298 5.39833 0.168099 4.75287 0.168099C4.10742 0.168099 4.1009 0.33598 3.44893 0.33598C3.01211 0.33598 2.64049 0.361807 2.26234 0.516774C1.87116 0.678198 1.38218 0.71694 1.08227 1.01396C0.788887 1.30452 0.651973 1.75005 0.48898 2.14392C0.332507 2.51843 0.391184 2.92521 0.391184 3.35783C0.345546 4.00998 0.0326002 4.00998 0.0326002 4.66213C0.0326002 5.31428 0.0195607 5.30783 0.0195607 5.95352C0.0195607 6.59922 0.0195607 6.59922 0.0195607 7.24491C0.0195607 7.89061 0.215152 7.89061 0.215152 8.5363C0.215152 9.18199 0.325987 9.18199 0.325987 9.82769C0.325987 10.4734 0.0847579 10.4734 0.0847579 11.1191C0.0847579 11.7648 0.306428 11.7648 0.306428 12.404C0.306428 13.0432 0.162994 13.0497 0.162994 13.6954C0.162994 14.3411 0.169514 14.3411 0.169514 14.9868C0.169514 15.6325 0.0065213 15.6196 0.0065213 16.2653C0.0065213 16.911 0.169514 16.911 0.169514 17.5567C0.169514 18.2023 0.0782382 18.2023 0.0782382 18.8416C0.0782382 19.4808 0.26731 19.4873 0.26731 20.133C0.26731 20.7787 0.25427 20.7787 0.25427 21.4179C0.25427 22.0571 0.234711 22.0636 0.234711 22.7093C0.234711 23.355 0.0260804 23.355 0.0260804 23.9942C0.0260804 24.6335 0.0651987 24.6399 0.0651987 25.2792C0.0651987 25.9184 0.339027 25.9249 0.339027 26.5641C0.339027 27.2033 0.234711 27.2098 0.234711 27.849C0.234711 28.4883 0.176034 28.4947 0.176034 29.134C0.176034 29.7732 0.189073 29.7732 0.189073 30.4189C0.189073 31.0646 0.156475 31.0646 0.156475 31.7038C0.156475 32.3431 0.156475 32.3495 0.156475 32.9888C0.156475 33.628 0.156475 33.6344 0.156475 34.2737C0.156475 34.9129 0.286869 34.9129 0.286869 35.5586C0.286869 36.2043 0.306428 36.1979 0.306428 36.8435C0.306428 37.4892 0.234711 37.4892 0.234711 38.1285C0.234711 38.7677 0.0977973 38.7742 0.0977973 39.4134C0.0977973 40.0527 0.25427 40.0591 0.25427 40.6983C0.25427 41.3376 0.25427 41.344 0.25427 41.9833C0.25427 42.6225 0.058679 42.629 0.058679 43.2682C0.058679 43.9074 1.58697e-06 43.9139 1.58697e-06 44.5531C1.58697e-06 45.1924 0.234711 45.1988 0.234711 45.8381C0.234711 46.4773 1.58697e-06 46.4967 1.58697e-06 47.1424C1.58697e-06 47.7881 0.136916 47.7881 0.136916 48.4273C0.136916 49.0665 0.130396 49.073 0.130396 49.7122C0.130396 50.3515 0.117356 50.3579 0.117356 50.9972C0.117356 51.6364 0.0847579 51.6429 0.0847579 52.2821C0.0847579 52.9213 0.162994 52.9278 0.162994 53.567C0.162994 54.2063 0.325987 54.2127 0.325987 54.852C0.325987 55.4912 0.0065213 55.4977 0.0065213 56.1369C0.0065213 56.7761 0.0065213 56.7826 0.0065213 57.4218C0.0065213 58.0611 0.221672 58.0675 0.221672 58.7068C0.221672 59.346 0.228192 59.3525 0.228192 59.9917C0.228192 60.6309 0.136916 60.6374 0.136916 61.2766C0.136916 61.9159 0.228192 61.9223 0.228192 62.5616C0.228192 63.2008 0.123876 63.2072 0.123876 63.8465C0.123876 64.4857 0.247751 64.4922 0.247751 65.1314C0.247751 65.7707 0.352066 65.7771 0.352066 66.4164C0.352066 67.0556 0.110837 67.062 0.110837 67.7013C0.110837 68.3405 0.234711 68.3405 0.234711 68.9862C0.234711 69.6319 0.26079 69.6255 0.26079 70.2711C0.26079 70.9168 0.0260804 70.9104 0.0260804 71.5561C0.0260804 72.2018 0.169514 72.1953 0.169514 72.841C0.169514 73.4867 0.247751 73.4803 0.247751 74.1259C0.247751 74.7716 0.123876 74.7716 0.123876 75.4109C0.123876 76.0501 0.169514 76.0566 0.169514 76.6958C0.169514 77.335 0.0391199 77.3415 0.0391199 77.9807C0.0391199 78.62 0.0456396 78.6264 0.0456396 79.2657C0.0456396 79.9049 0.0065213 79.9049 0.0065213 80.5506C0.0065213 81.1963 0.013041 81.1898 0.013041 81.8355C0.013041 82.4812 0.215152 82.4748 0.215152 83.1205C0.215152 83.7662 0.247751 83.7597 0.247751 84.4054C0.247751 85.0511 0.345546 85.0446 0.345546 85.6903C0.345546 86.336 0.0326002 86.3296 0.0326002 86.9753C0.0326002 87.621 0.130396 87.6145 0.130396 88.2602C0.130396 88.9059 0.0521593 88.8994 0.0521593 89.5451C0.0521593 90.1908 0.25427 90.1844 0.25427 90.8301C0.25427 91.4758 0.312948 91.4693 0.312948 92.115C0.312948 92.7607 0.182554 92.7607 0.182554 93.3999C0.182554 94.0392 0.169514 94.0456 0.169514 94.6849C0.169514 95.3241 0.26731 95.3306 0.26731 95.9698C0.26731 96.609 0.202113 96.609 0.202113 97.2547C0.202113 97.9004 0.25427 97.894 0.25427 98.5397C0.25427 99.1854 0.0195607 99.1789 0.0195607 99.8246C0.0195607 100.47 0.286869 100.464 0.286869 101.11C0.286869 101.755 0.156475 101.749 0.156475 102.394C0.156475 103.04 0.286869 103.034 0.286869 103.679C0.286869 104.325 -0.00651813 104.319 -0.00651813 104.964C-0.00651813 105.61 0.0456396 105.604 0.0456396 106.249C0.0456396 106.895 0.162994 106.888 0.162994 107.534C0.162994 108.18 0.0391199 108.173 0.0391199 108.819C0.0391199 109.465 0.117356 109.458 0.117356 110.104C0.117356 110.75 0.332507 110.743 0.332507 111.389C0.332507 112.035 0.0977973 112.028 0.0977973 112.674C0.0977973 113.32 0.058679 113.313 0.058679 113.959C0.058679 114.605 0.013041 114.598 0.013041 115.244C0.013041 115.889 0.123876 115.883 0.123876 116.529C0.123876 117.174 0.123876 117.174 0.123876 117.814C0.123876 118.453 0.189073 118.453 0.189073 119.099C0.189073 119.744 -0.0260773 119.738 -0.0260773 120.384C-0.0260773 121.029 -0.00651813 121.023 -0.00651813 121.668C-0.00651813 122.101 0.221672 122.521 0.378145 122.902C0.541138 123.289 0.834525 123.599 1.12791 123.896C1.4213 124.187 1.81248 124.296 2.21018 124.458C2.58833 124.613 2.94039 125.007 3.37721 125.007C4.02919 125.007 4.02919 124.89 4.68768 124.89C5.34617 124.89 5.33965 124.936 5.99814 124.936C6.65663 124.936 6.65011 124.974 7.30208 124.974C7.95405 124.974 7.95405 124.735 8.60602 124.735C9.258 124.735 9.258 124.884 9.90997 124.884C10.5619 124.884 10.5619 125.026 11.2139 125.026C11.8659 125.026 11.8659 124.936 12.5179 124.936C13.1698 124.936 13.1698 124.697 13.8218 124.697C14.4738 124.697 14.4738 125.013 15.1257 125.013C15.7777 125.013 15.7777 124.89 16.4297 124.89C17.0817 124.89 17.0817 124.858 17.7336 124.858C18.3856 124.858 18.3856 124.903 19.0376 124.903C19.6895 124.903 19.6895 124.949 20.3415 124.949C20.9935 124.949 20.9935 124.884 21.6455 124.884C22.2974 124.884 22.2974 124.884 22.9494 124.884C23.6014 124.884 23.6014 124.69 24.2533 124.69C24.9053 124.69 24.9053 124.794 25.5573 124.794C26.2093 124.794 26.2093 125.007 26.8612 125.007C27.5132 125.007 27.5132 124.865 28.1652 124.865C28.8171 124.865 28.8171 124.878 29.4691 124.878C30.1211 124.878 30.1211 125.007 30.7731 125.007C31.425 125.007 31.425 124.936 32.077 124.936C32.729 124.936 32.729 125 33.3809 125C34.0329 125 34.0329 124.761 34.6849 124.761C35.3369 124.761 35.3369 124.761 35.9823 124.761C36.6278 124.761 36.6343 124.871 37.2797 124.871C37.9252 124.871 37.9317 124.949 38.5837 124.949C39.0205 124.949 39.4117 124.697 39.7898 124.542C40.181 124.38 40.6569 124.296 40.9503 124.006C41.2437 123.715 41.2242 123.199 41.3871 122.811C41.5436 122.437 41.8044 122.095 41.8044 121.662C41.8044 121.016 41.7001 121.016 41.7001 120.371C41.7001 119.725 41.8566 119.725 41.8566 119.079C41.8566 118.434 41.7588 118.434 41.7588 117.788C41.7588 117.142 41.837 117.142 41.837 116.496C41.837 115.851 41.6871 115.851 41.6871 115.205C41.6871 114.559 41.8435 114.559 41.8435 113.914C41.8435 113.268 41.8892 113.268 41.8892 112.629C41.8892 111.989 41.9544 111.983 41.9544 111.337C41.9544 110.692 41.8761 110.692 41.8761 110.046C41.8761 109.4 41.7914 109.4 41.7914 108.755L41.837 108.748Z" fill="#9DBF7B"/>
</g>
<defs>
<clipPath id="clip0_110_105">
<rect width="42" height="125" fill="white"/>
</clipPath>
</defs>
</svg>
