<svg width="146" height="32" viewBox="0 0 146 32" fill="none" xmlns="http://www.w3.org/2000/svg">
<path d="M144.67 15.5031L145.094 15.5031C145.094 16.0021 144.799 16.5011 144.744 17.0001C144.688 17.4991 144.891 18.0497 144.78 18.5315C144.67 19.0133 144.375 19.4779 144.227 19.9597C144.08 20.4415 143.84 20.8889 143.637 21.3535C143.434 21.818 143.324 22.3343 143.084 22.7816C142.844 23.229 142.42 23.5904 142.125 24.0033C141.83 24.4163 141.609 24.8981 141.259 25.2767C140.908 25.6552 140.355 25.8445 139.968 26.2058C139.581 26.5672 139.452 27.1522 139.028 27.4792C138.603 27.8061 138.124 28.0298 137.663 28.3051C137.202 28.5804 136.741 28.8385 136.262 29.0622C135.782 29.2859 135.174 29.2343 134.676 29.4235C134.178 29.6128 133.791 30.0774 133.275 30.2151C132.758 30.3527 132.261 30.5764 131.726 30.6797C131.191 30.7829 130.601 30.4388 130.066 30.4904C129.532 30.542 129.034 30.7485 128.481 30.7485C127.688 30.7485 127.688 30.8345 126.895 30.8345C126.102 30.8345 126.102 30.628 125.309 30.628C124.516 30.628 124.516 30.8001 123.742 30.8001C122.967 30.8001 122.949 30.8001 122.175 30.8001C121.4 30.8001 121.382 30.9894 120.607 30.9894C119.833 30.9894 119.814 30.628 119.04 30.628C118.266 30.628 118.247 30.9722 117.473 30.9722C116.698 30.9722 116.68 30.5592 115.905 30.5592C115.131 30.5592 115.113 30.9206 114.338 30.9206C113.564 30.9206 113.545 30.9722 112.771 30.9722C111.996 30.9722 111.978 30.8345 111.204 30.8345C110.429 30.8345 110.411 31.0066 109.636 31.0066C108.862 31.0066 108.843 31.0066 108.069 31.0066C107.295 31.0066 107.276 30.7485 106.483 30.7485C105.69 30.7485 105.69 30.8517 104.898 30.8517C104.105 30.8517 104.105 30.8173 103.33 30.8173C102.556 30.8173 102.537 30.8861 101.763 30.8861C100.989 30.8861 100.97 30.7313 100.196 30.7313C99.4213 30.7313 99.4029 30.7313 98.6285 30.7313C97.854 30.7313 97.8356 30.8345 97.0612 30.8345C96.2867 30.8345 96.2683 30.9378 95.4939 30.9378C94.7195 30.9378 94.701 30.5592 93.9266 30.5592C93.1522 30.5592 93.1337 30.5592 92.3593 30.5592C91.5849 30.5592 91.5665 30.8345 90.792 30.8345C90.0176 30.8345 89.9992 30.7141 89.2247 30.7141C88.4503 30.7141 88.4319 30.9206 87.6575 30.9206C86.883 30.9206 86.8646 30.5592 86.0902 30.5592C85.3158 30.5592 85.2973 30.6108 84.5229 30.6108C83.7485 30.6108 83.73 30.8345 82.9556 30.8345C82.1812 30.8345 82.1627 31.0066 81.3883 31.0066C80.6139 31.0066 80.5955 30.8345 79.8026 30.8345C79.0097 30.8345 79.0097 30.5764 78.2169 30.5764C77.424 30.5764 77.424 30.8861 76.6311 30.8861C75.8383 30.8861 75.8383 30.8861 75.0639 30.8861C74.2894 30.8861 74.271 30.628 73.4966 30.628C72.7221 30.628 72.7037 30.628 71.9293 30.628C71.1549 30.628 71.1364 30.5936 70.362 30.5936C69.5876 30.5936 69.5691 30.8861 68.7947 30.8861C68.0203 30.8861 68.0019 30.8517 67.2274 30.8517C66.453 30.8517 66.4346 30.6625 65.6417 30.6625C64.8488 30.6625 64.8488 30.8861 64.056 30.8861C63.2631 30.8861 63.2631 30.6969 62.4703 30.6969C61.6774 30.6969 61.6774 30.8861 60.8845 30.8861C60.0917 30.8861 60.0917 30.9206 59.2988 30.9206C58.5059 30.9206 58.5059 30.955 57.7131 30.955C56.9202 30.955 56.9202 31.041 56.1274 31.041C55.3345 31.041 55.3345 31.0238 54.5416 31.0238C53.7488 31.0238 53.7488 30.6969 52.9559 30.6969C52.1631 30.6969 52.1631 31.0238 51.3702 31.0238C50.5773 31.0238 50.5773 30.7657 49.7845 30.7657C48.9916 30.7657 48.9916 30.9034 48.1987 30.9034C47.4059 30.9034 47.4059 31.041 46.613 31.041C45.8202 31.041 45.8202 30.7657 45.0273 30.7657C44.2344 30.7657 44.2344 30.955 43.4416 30.955C42.6487 30.955 42.6487 30.6969 41.8558 30.6969C41.063 30.6969 41.063 30.8689 40.2701 30.8689C39.4773 30.8689 39.4773 30.9206 38.6844 30.9206C37.8915 30.9206 37.8915 30.9206 37.0987 30.9206C36.3058 30.9206 36.3058 30.955 35.5314 30.955C34.757 30.955 34.7385 31.0238 33.9457 31.0238C33.1528 31.0238 33.1528 30.7313 32.3599 30.7313C31.5671 30.7313 31.5671 30.7829 30.7742 30.7829C29.9814 30.7829 29.9813 30.6453 29.1885 30.6453C28.3956 30.6453 28.3956 30.9378 27.6028 30.9378C26.8099 30.9378 26.8099 30.6969 26.017 30.6969C25.2242 30.6969 25.2242 30.8001 24.4313 30.8001C23.6385 30.8001 23.6385 30.7141 22.8456 30.7141C22.0527 30.7141 22.0527 30.8173 21.2599 30.8173C20.467 30.8173 20.467 30.7313 19.6741 30.7313C18.8813 30.7313 18.8813 30.8517 18.07 30.8517C17.2587 30.8517 17.2771 30.6969 16.4658 30.6969C15.9311 30.6969 15.3964 30.8173 14.8617 30.7657C14.3269 30.7141 13.7922 30.6453 13.2759 30.542C12.7596 30.4388 12.2434 30.2495 11.7455 30.1118C11.2477 29.9742 10.7314 29.8193 10.2336 29.63C9.73571 29.4408 9.2563 29.2515 8.7769 29.0106C8.29749 28.7697 7.87341 28.4772 7.43088 28.2019C6.98835 27.9265 6.36144 27.8577 5.95579 27.5308C5.55014 27.2039 5.4395 26.5672 5.07073 26.223C4.70196 25.8789 4.09348 25.7068 3.76159 25.3283C3.42969 24.9497 3.37437 24.3647 3.07936 23.9517C2.78434 23.5388 2.54464 23.1086 2.28649 22.6784C2.02835 22.2482 1.78865 21.8181 1.58583 21.3535C1.383 20.8889 0.922034 20.5275 0.774525 20.0457C0.627015 19.5639 0.553261 19.0649 0.461067 18.5659C0.368874 18.0669 0.313558 17.5851 0.258242 17.0861C0.202926 16.5871 0.258242 16.1053 0.258242 15.5891C0.258242 15.0901 0.313558 14.5911 0.368874 14.1093C0.42419 13.6275 0.571699 13.1457 0.663892 12.6467C0.756085 12.1477 0.756085 11.6487 0.903595 11.1669C1.0511 10.6851 1.23549 10.2205 1.43832 9.75593C1.64114 9.29134 1.6227 8.72351 1.8624 8.27613C2.10211 7.82874 2.41556 7.38136 2.71058 6.9684C3.0056 6.55543 3.50344 6.26291 3.85378 5.88435C4.20411 5.5058 4.7204 5.28211 5.08917 4.92076C5.45794 4.55941 5.64233 4.00879 6.04798 3.68186C6.45363 3.35492 6.96991 3.14844 7.41244 2.87312C7.85497 2.59781 8.35281 2.40853 8.83222 2.18484C9.31162 1.96115 9.71727 1.59981 10.2151 1.41053C10.713 1.22125 11.303 1.30728 11.8193 1.15242C12.3356 0.997558 12.7596 0.550176 13.2759 0.446933C13.7922 0.343692 14.3822 0.636211 14.917 0.58459C15.4517 0.532968 15.9495 0.240451 16.5027 0.240451C17.2956 0.240451 17.2956 0.309278 18.0884 0.309278C18.8813 0.309278 18.8813 0.412522 19.6741 0.412522C20.467 0.412522 20.467 0.17162 21.2414 0.17162C22.0159 0.17162 22.0343 0.120002 22.8087 0.120002C23.5831 0.120002 23.6016 0.0511731 24.376 0.0511731C25.1504 0.0511731 25.1689 0.0511731 25.9433 0.051173C26.7177 0.051173 26.7361 0.051173 27.5106 0.051173C28.285 0.0511729 28.3034 0.137206 29.0779 0.137206C29.8523 0.137206 29.8707 0.343691 30.6451 0.343691C31.4196 0.343691 31.438 0.137206 32.2124 0.137206C32.9869 0.137206 33.0053 0.360899 33.7797 0.360899C34.5541 0.360899 34.5726 0.360899 35.347 0.360899C36.1214 0.360899 36.1399 0.257658 36.9143 0.257658C37.6887 0.257658 37.7071 0.257658 38.5 0.257658C39.2929 0.257658 39.2929 0.0855867 40.0857 0.0855867C40.8786 0.0855867 40.8786 0.0339643 41.653 0.0339643C42.4274 0.0339642 42.4459 0.429726 43.2203 0.429726C43.9947 0.429726 44.0132 0.0855865 44.7876 0.0855865C45.562 0.0855865 45.5805 0.257658 46.3549 0.257658C47.1293 0.257658 47.1477 0.378105 47.9222 0.378105C48.6966 0.378105 48.715 0.412521 49.4894 0.412521C50.2639 0.412521 50.2823 0.378105 51.0567 0.378105C51.8312 0.378105 51.8496 0.188827 52.624 0.188827C53.3984 0.188827 53.4169 0.395313 54.1913 0.395313C54.9657 0.395313 54.9842 0.0511718 55.7586 0.0511717C56.533 0.0511717 56.5514 0.154413 57.3259 0.154413C58.1003 0.154413 58.1187 0.34369 58.8932 0.34369C59.6676 0.34369 59.686 0.137204 60.4604 0.137204C61.2349 0.137204 61.2533 0.154412 62.0277 0.154412C62.8021 0.154412 62.8206 0.257657 63.595 0.257657C64.3694 0.257657 64.3879 0.41252 65.1807 0.41252C65.9736 0.41252 65.9736 0.309276 66.7665 0.309276C67.5593 0.309276 67.5593 0.0855855 68.3522 0.0855855C69.145 0.0855854 69.145 0.188826 69.9195 0.188826C70.6939 0.188826 70.7123 0.446931 71.4868 0.446931C72.2612 0.446931 72.2796 0.257657 73.054 0.257657C73.8285 0.257657 73.8469 0.206034 74.6213 0.206034C75.3958 0.206034 75.4142 0.171618 76.1886 0.171618C76.963 0.171618 76.9815 0.429724 77.7559 0.429724C78.5303 0.429724 78.5488 0.292067 79.3416 0.292067C80.1345 0.292067 80.1345 0.102793 80.9273 0.102793C81.7202 0.102793 81.7202 0.309275 82.5131 0.309275C83.3059 0.309275 83.3059 0.343689 84.0988 0.343689C84.8917 0.343689 84.8917 0.395311 85.6845 0.395311C86.4774 0.395311 86.4774 0.326481 87.2702 0.326481C88.0631 0.326481 88.0631 0.257656 88.856 0.257656C89.6488 0.257656 89.6488 0.257656 90.4417 0.257656C91.2345 0.257656 91.2346 0.464138 92.0274 0.464138C92.8203 0.464138 92.8203 0.119999 93.6131 0.119999C94.406 0.119999 94.406 0.309274 95.1989 0.309274C95.9917 0.309274 95.9917 0.395311 96.7846 0.395311C97.5775 0.395311 97.5775 0.0339618 98.3703 0.0339618C99.1632 0.0339617 99.1632 0.360897 99.956 0.360897C100.749 0.360896 100.749 0.0339617 101.542 0.0339616C102.335 0.0339616 102.335 -0.00045269 103.127 -0.000452725C103.92 -0.000452759 103.92 0.412519 104.713 0.412519C105.506 0.412519 105.506 0.274862 106.299 0.274861C107.092 0.274861 107.092 0.446929 107.885 0.446929C108.678 0.446929 108.678 0.257655 109.452 0.257655C110.226 0.257655 110.245 0.257655 111.038 0.257655C111.831 0.257655 111.831 0.0683755 112.623 0.0683754C113.416 0.0683754 113.416 0.206033 114.209 0.206033C115.002 0.206033 115.002 0.240447 115.795 0.240447C116.588 0.240447 116.588 0.0683753 117.381 0.0683752C118.173 0.0683752 118.173 0.0167528 118.966 0.0167528C119.759 0.0167527 119.759 0.171616 120.552 0.171616C121.345 0.171616 121.345 0.429722 122.138 0.429722C122.931 0.429722 122.931 0.171616 123.723 0.171616C124.516 0.171616 124.516 0.119997 125.309 0.119997C126.102 0.119997 126.102 0.188824 126.913 0.188824C127.725 0.188824 127.706 0.378101 128.518 0.378101C129.052 0.378101 129.605 0.0683766 130.14 0.119997C130.675 0.171618 131.21 0.326479 131.726 0.429722C132.242 0.532963 132.722 0.859896 133.219 0.997553C133.717 1.13521 134.289 1.18683 134.768 1.37611C135.248 1.56539 135.709 1.8579 136.17 2.0816C136.631 2.30529 137.128 2.52898 137.571 2.80429C138.013 3.0796 138.53 3.28609 138.935 3.59581C139.341 3.90554 139.599 4.40454 139.968 4.74868C140.337 5.09282 140.613 5.523 140.945 5.91876C141.277 6.31452 141.72 6.60704 142.015 7.02001C142.31 7.43298 142.586 7.86315 142.826 8.29333C143.066 8.7235 143.453 9.11927 143.656 9.58386C143.858 10.0484 143.914 10.5647 144.061 11.0292C144.209 11.4938 144.578 11.9412 144.688 12.423C144.799 12.9048 144.614 13.4382 144.688 13.9372C144.762 14.4362 144.651 14.918 144.651 15.4342L144.67 15.5031Z" fill="#9DBF7B"/>
</svg>
