<svg width="28" height="28" viewBox="0 0 28 28" fill="none" xmlns="http://www.w3.org/2000/svg">
<g clip-path="url(#clip0_47_49)">
<path d="M21.671 28C20.182 28 18.5897 27.5664 16.9383 26.7107C13.8856 25.1292 11.7564 23.8929 7.93301 20.0692C4.10961 16.2455 2.87342 14.1162 1.292 11.0633C-1.5188 5.63901 1.00793 2.47527 1.84927 1.63455L2.78236 0.701393C3.24108 0.242633 3.77253 0 4.31892 0C4.91425 0 5.48035 0.282053 5.95742 0.816253C6.82935 1.7929 8.57115 4.38235 9.22967 5.46706C9.95208 6.65712 9.77403 8.12039 8.78658 9.10792L6.97546 10.9192C8.25582 13.1504 9.60753 14.9264 11.3405 16.6608C13.0748 18.3946 14.8506 19.7457 17.0817 21.0262L18.8928 19.2149C19.4623 18.6454 20.2065 18.3314 20.988 18.3314C21.5249 18.3314 22.0591 18.4836 22.5334 18.7718C23.6181 19.4304 26.208 21.173 27.1839 22.0443C27.7011 22.5058 27.9831 23.0542 27.9994 23.6306C28.0157 24.1953 27.7731 24.7452 27.2981 25.2196L26.3725 26.1453C25.8104 26.708 24.2426 27.9993 21.6717 27.9993L21.671 28Z" fill="#553219"/>
</g>
<defs>
<clipPath id="clip0_47_49">
<rect width="28" height="28" fill="white"/>
</clipPath>
</defs>
</svg>
